# 3ds Max Wavefront OBJ Exporter v0.97b - (c)2007 guruware
# 创建的文件:28.09.2021 17:25:35

mtllib tietu.mtl

#
# object Object69
#

v  -1191.6852 -0.0506 -142.1300
v  -1215.9098 -0.0506 -142.1312
v  -1215.9098 -0.0506 -94.9557
v  -1191.6852 -0.0506 -94.9557
# 4 vertices

vn 0.0000 1.0000 -0.0000
# 1 vertex normals

vt 0.9995 0.9995 0.5000
vt 0.0005 0.9995 0.5000
vt 0.0005 0.0005 0.5000
vt 0.9995 0.0005 0.5000
# 4 texture coords

o Object69
g Object69
usemtl Material__2132017716
s off
f 1/1/1 2/2/1 3/3/1 4/4/1 
# 1 polygons

#
# object Mesh75
#

v  -871.7276 0.0000 -178.3885
v  -871.7297 -0.0000 -186.6757
v  -978.8279 -0.0000 -186.6757
v  -978.8259 0.0000 -178.3885
# 4 vertices

vn 0.0000 1.0000 -0.0000
# 1 vertex normals

vt 2.4062 0.0005 0.5000
vt 2.4063 0.9995 0.5000
vt -18.5938 0.9995 0.5000
vt -18.5938 0.0005 0.5000
# 4 texture coords

o Mesh75
g Mesh75
usemtl 经贸大厦_zhy_铺地13
s off
f 5/5/2 6/6/2 7/7/2 8/8/2 
# 1 polygons

#
# object Mesh77
#

v  -871.7184 -0.0001 -60.6129
v  -976.9042 -0.0001 -60.6129
v  -976.9042 -0.0001 -56.7879
v  -871.7206 -0.0001 -56.7878
v  -852.5938 -0.0002 -166.9142
v  -856.4187 -0.0002 -166.9142
v  -856.4187 -0.0002 -75.9126
v  -852.5959 -0.0002 -75.9124
# 8 vertices

vn 0.0000 1.0000 -0.0000
vn -0.0000 1.0000 -0.0000
# 2 vertex normals

vt -9.8125 0.0005 0.5000
vt 10.8125 0.0005 0.5000
vt 10.8125 0.9995 0.5000
vt -9.8125 0.9995 0.5000
vt -50.2937 0.9995 0.5000
vt -50.2937 0.0005 0.5000
vt -32.4500 0.0005 0.5000
vt -32.4500 0.9995 0.5000
# 8 texture coords

o Mesh77
g Mesh77
usemtl Dx_B_rxd_006
s off
f 9/9/3 10/10/3 11/11/4 12/12/4 
f 13/13/3 14/14/3 15/15/4 16/16/4 
# 2 polygons

#
# object Mesh214
#

v  -1121.2677 -0.0492 -178.3883
v  -1142.1423 -0.0492 -178.3877
v  -1142.1423 -0.0492 -146.0944
v  -1121.2677 -0.0492 -146.0938
v  -1059.1339 -0.0465 -143.4551
v  -1059.1339 -0.0465 -118.6090
v  -1046.3949 -0.0465 -118.6090
v  -1046.4130 -0.0452 -161.1729
v  -1106.5437 -0.0492 -178.3890
v  -1106.5437 -0.0492 -166.1708
v  -1081.8258 -0.0492 -166.1708
v  -1063.6044 -0.0452 -178.3877
v  -1167.4082 -0.0492 -156.9164
v  -1167.4082 -0.0492 -178.3889
v  -1213.7283 -0.0506 -178.3889
v  -1203.8029 -0.0492 -156.9164
v  -1046.3798 -0.0465 -104.0800
v  -1110.3453 -0.0478 -104.0806
v  -1110.3453 -0.0478 -69.0187
v  -1046.3822 -0.0451 -79.2542
v  -1047.5160 -0.0451 -71.3449
v  -1059.8291 -0.0451 -60.6128
v  -1220.0927 -0.0505 -60.6128
v  -1167.4106 -0.0478 -69.0187
v  -1167.4106 -0.0479 -142.1324
v  -1191.6852 -0.0492 -142.1298
v  -1191.6852 -0.0492 -94.9556
v  -1215.9097 -0.0492 -94.9556
v  -1231.5988 -0.0505 -72.0876
v  -1215.9097 -0.0492 -142.1311
v  -1231.5988 -0.0506 -161.1767
v  -1203.8029 -0.0492 -142.1330
# 32 vertices

vn 0.0000 1.0000 -0.0000
vn -0.0000 1.0000 -0.0000
vn -0.0001 1.0000 -0.0000
vn 0.0000 1.0000 0.0000
vn -0.0000 1.0000 0.0000
vn -0.0001 1.0000 0.0002
vn -0.0001 1.0000 0.0001
vn -0.0000 1.0000 -0.0001
vn -0.0000 1.0000 -0.0002
vn -0.0000 1.0000 0.0002
vn -0.0002 1.0000 0.0000
vn -0.0001 -1.0000 -0.0000
# 12 vertex normals

vt -9.4183 -8.1888 0.2196
vt -9.8433 -8.1888 0.2196
vt -9.8433 -8.8338 0.2196
vt -9.4183 -8.8338 0.2196
vt -8.1812 -8.8866 0.2198
vt -8.1812 -9.3829 0.2198
vt -7.9267 -9.3829 0.2198
vt -7.9271 -8.5326 0.2199
vt -9.1282 -8.1887 0.2196
vt -9.1282 -8.4328 0.2196
vt -8.6345 -8.4328 0.2196
vt -8.2705 -8.1888 0.2199
vt -10.3440 -8.6177 0.2196
vt -10.3440 -8.1887 0.2196
vt -11.2692 -8.1887 0.2195
vt -11.0710 -8.6177 0.2196
vt -7.9264 -9.6731 0.2198
vt -9.2042 -9.6731 0.2197
vt -9.2042 -10.3734 0.2197
vt -7.9265 -10.1690 0.2199
vt -7.9121 -10.3041 0.2199
vt -8.1951 -10.5413 0.2199
vt -11.3964 -10.5413 0.2195
vt -10.3440 -10.3734 0.2197
vt -10.3440 -8.9130 0.2197
vt -10.8289 -8.9130 0.2196
vt -10.8289 -9.8553 0.2196
vt -11.3128 -9.8553 0.2196
vt -11.6262 -10.3121 0.2195
vt -11.3128 -8.9130 0.2196
vt -11.6262 -8.5326 0.2195
vt -11.0710 -8.9130 0.2196
# 32 texture coords

o Mesh214
g Mesh214
usemtl 经贸大厦__草a
s off
f 17/17/5 18/18/5 19/19/6 20/20/6 
f 21/21/7 22/22/5 23/23/8 24/24/9 
f 25/25/7 26/26/5 27/27/10 28/28/11 
f 24/24/9 28/28/11 27/27/10 21/21/7 
f 29/29/5 30/30/6 31/31/6 32/32/6 
f 33/33/12 34/34/6 35/35/13 36/36/6 
f 37/37/5 36/36/6 35/35/13 38/38/12 
f 39/39/9 38/38/12 35/35/13 40/40/14 
f 41/41/7 42/42/7 43/43/6 40/40/14 
f 39/39/9 40/40/14 43/43/6 44/44/15 
f 45/45/9 39/39/9 44/44/15 46/46/16 
f 47/47/6 45/45/9 46/46/16 32/32/6 
f 46/46/16 48/48/5 32/32/6 
f 31/31/6 47/47/6 32/32/6 
# 12 polygons - 2 triangles

#
# object Mesh219
#

v  -1046.3975 -0.0492 -79.2594
v  -1038.1042 -0.0492 -79.2588
v  -1038.1042 -0.0492 -161.1761
v  -1046.3975 -0.0492 -161.1768
v  -1213.7385 -0.0492 -178.3890
v  -1063.6096 -0.0492 -178.3890
v  -1063.6038 -0.0492 -186.6757
v  -1213.7325 -0.0492 -186.6757
v  -1231.5881 -0.0492 -161.1768
v  -1239.2319 -0.0492 -161.1761
v  -1239.2319 -0.0492 -75.9120
v  -1231.5800 -0.0492 -75.9122
# 12 vertices

vn -0.0000 1.0000 -0.0000
vn 0.0000 1.0000 -0.0000
# 2 vertex normals

vt 8.5312 0.0005 0.5000
vt 8.5313 0.9995 0.5000
vt -7.5313 0.9995 0.5000
vt -7.5313 0.0005 0.5000
vt -14.2187 0.0005 0.5000
vt 15.2187 0.0005 0.5000
vt 15.2187 0.9995 0.5000
vt -14.2187 0.9995 0.5000
vt 8.8594 0.0005 0.5000
vt 8.8594 0.9995 0.5000
vt -7.8594 0.9995 0.5000
vt -7.8594 0.0005 0.5000
# 12 texture coords

o Mesh219
g Mesh219
usemtl 经贸大厦_zhy_铺地13
s off
f 49/49/17 50/50/17 51/51/17 52/52/17 
f 53/53/18 54/54/18 55/55/18 56/56/18 
f 57/57/18 58/58/18 59/59/18 60/60/18 
# 3 polygons

#
# object Mesh796
#

v  -874.5819 -0.0493 -43.4005
v  -972.4418 -0.0493 -43.4007
v  -972.4418 -0.0493 -39.5758
v  -874.5798 -0.0493 -39.5758
v  -852.5939 -0.0493 54.2945
v  -852.5960 -0.0493 -24.2758
v  -859.2800 -0.0493 -24.2760
v  -859.2836 -0.0493 54.2926
# 8 vertices

vn -0.0000 1.0000 -0.0000
vn 0.0000 1.0000 -0.0000
# 2 vertex normals

vt 10.3750 0.9995 0.5000
vt -9.3750 0.9995 0.5000
vt -9.3750 0.0005 0.5000
vt 10.3750 0.0005 0.5000
vt -6.9187 0.9995 0.5000
vt -22.3250 0.9995 0.5000
vt -22.3250 0.0005 0.5000
vt -6.9187 0.0005 0.5000
# 8 texture coords

o Mesh796
g Mesh796
usemtl Dx_B_rxd_006
s off
f 61/61/19 62/62/19 63/63/20 64/64/20 
f 65/65/19 66/66/19 67/67/19 68/68/19 
# 2 polygons

#
# object Mesh803
#

v  -920.7103 -0.0743 -39.5746
v  -920.7103 -0.0743 54.2919
v  -913.6431 -0.0743 54.2933
v  -913.6431 -0.0743 -39.5733
v  -880.7710 -0.0743 -39.5733
v  -880.7710 -0.0743 54.2919
v  -873.5444 -0.0743 54.2932
v  -873.5444 -0.0743 -39.5720
# 8 vertices

vn -0.0000 1.0000 -0.0000
vn 0.0000 1.0000 -0.0000
# 2 vertex normals

vt 1.7332 0.9788 0.5000
vt -12.9912 0.9788 0.5000
vt -12.9911 0.0005 0.5000
vt 1.7332 0.0005 0.5000
vt 7.8621 0.9995 0.5000
vt -6.8621 0.9995 0.5000
vt -6.8621 0.0005 0.5000
vt 7.8621 0.0005 0.5000
# 8 texture coords

o Mesh803
g Mesh803
usemtl Dx__rxd__03
s off
f 69/69/21 70/70/21 71/71/21 72/72/21 
f 73/73/22 74/74/22 75/75/22 76/76/22 
# 2 polygons

#
# object Mesh3010
#

v  -967.8200 0.0136 -13.7339
v  -924.3806 0.0133 -13.7338
v  -924.3806 0.0133 -28.8208
v  -967.8201 0.0136 -28.8208
# 4 vertices

vn 0.0000 1.0000 -0.0000
# 1 vertex normals

vt 1.6833 -1.6629 1.0078
vt 1.6833 2.6629 0.0078
vt -0.6833 2.6629 0.0078
vt -0.6833 -1.6629 1.0078
# 4 texture coords

o Mesh3010
g Mesh3010
usemtl SHUI___1
s 1
f 77/77/23 78/78/23 79/79/23 80/80/23 
# 1 polygons

#
# object Mesh207
#

v  -1231.6060 -0.0492 -0.0549
v  -1227.7794 -0.0492 -0.0520
v  -1227.7794 -0.0492 53.0500
v  -1231.5991 -0.0492 56.8405
v  -1054.6986 -0.0492 -17.9050
v  -1068.0952 -0.0492 -17.9071
v  -1068.0952 -0.0491 -25.5519
v  -1050.8804 -0.0492 -17.9084
v  -1050.8804 -0.0492 57.4747
v  -1054.6987 -0.0492 61.3031
v  -1221.5593 -0.0492 -14.3045
v  -1217.6105 -0.0492 -14.3045
v  -1217.6105 -0.0492 -5.5692
v  -1221.5593 -0.0492 -5.5594
v  -1221.5602 -0.0492 1.6914
v  -1217.6115 -0.0492 1.6914
v  -1217.6115 -0.0492 10.4267
v  -1221.5602 -0.0492 10.4365
v  -1221.5602 -0.0492 17.6886
v  -1217.6115 -0.0492 17.6886
v  -1217.6115 -0.0492 26.4234
v  -1221.5602 -0.0492 26.4337
v  -1221.5602 -0.0492 34.8982
v  -1217.6115 -0.0492 34.8982
v  -1217.6115 -0.0493 43.6331
v  -1221.5602 -0.0493 43.6434
v  -1058.6523 -0.0492 5.7624
v  -1054.7046 -0.0492 5.7624
v  -1054.7046 -0.0492 14.5003
v  -1058.6523 -0.0492 14.5088
v  -1058.6523 -0.0492 22.3155
v  -1054.7046 -0.0492 22.3155
v  -1054.7046 -0.0492 31.0529
v  -1058.6523 -0.0492 31.0606
v  -1058.6523 -0.0492 38.9693
v  -1054.7046 -0.0492 38.9693
v  -1054.7046 -0.0492 47.7071
v  -1058.6523 -0.0492 47.7157
v  -1204.0762 -0.0492 -3.2069
v  -1200.1274 -0.0492 -3.2069
v  -1200.1274 -0.0493 34.3589
v  -1204.0762 -0.0493 34.3692
# 42 vertices

vn -0.0000 1.0000 0.0000
vn 0.0000 1.0000 0.0000
# 2 vertex normals

vt -11.6257 -12.3273 0.2197
vt -11.5493 -12.3273 0.2197
vt -11.5493 -11.2666 0.2197
vt -11.6256 -11.1908 0.2197
vt -8.0920 -12.6839 0.2197
vt -8.3596 -12.6839 0.2197
vt -8.3596 -12.8366 0.2197
vt -8.0157 -12.6840 0.2197
vt -8.0157 -11.1782 0.2197
vt -8.0920 -11.1017 0.2197
vt -11.4250 -12.6120 0.2197
vt -11.3462 -12.6120 0.2197
vt -11.3462 -12.4375 0.2197
vt -11.4250 -12.4373 0.2197
vt -11.4251 -12.2924 0.2197
vt -11.3462 -12.2924 0.2197
vt -11.3462 -12.1180 0.2197
vt -11.4251 -12.1178 0.2197
vt -11.4251 -11.9729 0.2197
vt -11.3462 -11.9729 0.2197
vt -11.3462 -11.7984 0.2197
vt -11.4251 -11.7982 0.2197
vt -11.4251 -11.6291 0.2197
vt -11.3462 -11.6291 0.2197
vt -11.3462 -11.4547 0.2197
vt -11.4251 -11.4545 0.2197
vt -8.1710 -12.2111 0.2197
vt -8.0921 -12.2111 0.2197
vt -8.0921 -12.0366 0.2197
vt -8.1710 -12.0364 0.2197
vt -8.1710 -11.8805 0.2197
vt -8.0921 -11.8805 0.2197
vt -8.0921 -11.7060 0.2197
vt -8.1710 -11.7058 0.2197
vt -8.1710 -11.5478 0.2197
vt -8.0921 -11.5478 0.2197
vt -8.0921 -11.3733 0.2197
vt -8.1710 -11.3731 0.2197
# 38 texture coords

o Mesh207
g Mesh207
usemtl 经贸大厦__草a
s off
f 84/84/24 83/83/24 82/82/24 81/81/24 
f 88/88/24 87/87/24 86/86/24 85/85/24 
f 90/90/24 89/89/24 88/88/24 85/85/24 
f 94/94/24 93/93/24 92/92/24 91/91/24 
f 98/98/24 97/97/24 96/96/24 95/95/24 
f 102/102/24 101/101/24 100/100/24 99/99/24 
f 106/106/24 105/105/24 104/104/24 103/103/24 
f 110/110/24 109/109/24 108/108/24 107/107/24 
f 114/114/25 113/113/25 112/112/24 111/111/24 
f 118/118/24 117/117/24 116/116/24 115/115/24 
f 122/106/24 121/105/24 120/104/24 119/103/24 
# 11 polygons

#
# object Object308829734
#

v  -1091.8054 0.0508 -17.8491
v  -1207.6531 0.0508 -17.8474
v  -1207.6531 0.0508 -25.4543
v  -1091.8055 0.0508 -25.4542
v  -1073.5833 0.0508 -35.4988
v  -1216.2993 0.0508 -35.4972
v  -1216.2993 0.0508 -43.1040
v  -1073.5834 0.0508 -43.1039
# 8 vertices

vn -0.0000 1.0000 0.0000
# 1 vertex normals

vt 6.2852 0.8797 1.0000
vt -5.2852 0.8799 0.5000
vt -5.2852 0.1201 0.0000
vt 6.2851 0.1201 0.2500
# 4 texture coords

o Object308829734
g Object308829734
usemtl 经贸大厦__草a
s off
f 126/122/26 125/121/26 124/120/26 123/119/26 
f 130/122/26 129/121/26 128/120/26 127/119/26 
# 2 polygons

